<svg xmlns="http://www.w3.org/2000/svg" width="400" height="460" viewBox="0 0 400 460">
  <rect width="400" height="460" fill="#fff"/>
  <rect x="50" y="30" width="300" height="300" rx="12" fill="#f8f8f8" stroke="#e0e0e0" stroke-width="2"/>
  <!-- Simulated QR pattern -->
  <g fill="#222">
    <rect x="80" y="60" width="40" height="40"/><rect x="80" y="100" width="10" height="10"/>
    <rect x="130" y="60" width="10" height="10"/><rect x="150" y="60" width="10" height="30"/>
    <rect x="170" y="60" width="10" height="10"/><rect x="190" y="60" width="30" height="10"/>
    <rect x="230" y="60" width="10" height="10"/><rect x="250" y="60" width="10" height="30"/>
    <rect x="270" y="60" width="40" height="40"/>
    <rect x="80" y="110" width="40" height="10"/><rect x="270" y="110" width="40" height="10"/>
    <rect x="80" y="130" width="10" height="10"/><rect x="110" y="130" width="10" height="10"/>
    <rect x="270" y="130" width="10" height="10"/><rect x="300" y="130" width="10" height="10"/>
    <rect x="80" y="150" width="40" height="10"/><rect x="270" y="150" width="40" height="10"/>
    <rect x="130" y="140" width="130" height="10" opacity="0.3"/>
    <rect x="80" y="170" width="10" height="50"/><rect x="100" y="170" width="10" height="10"/>
    <rect x="120" y="180" width="10" height="10"/><rect x="140" y="170" width="10" height="20"/>
    <rect x="160" y="190" width="10" height="10"/><rect x="180" y="170" width="10" height="10"/>
    <rect x="200" y="180" width="10" height="20"/><rect x="220" y="170" width="10" height="10"/>
    <rect x="240" y="190" width="10" height="10"/><rect x="260" y="170" width="10" height="30"/>
    <rect x="280" y="180" width="10" height="10"/><rect x="300" y="170" width="10" height="20"/>
    <rect x="100" y="210" width="10" height="10"/><rect x="130" y="220" width="10" height="10"/>
    <rect x="150" y="210" width="10" height="10"/><rect x="170" y="230" width="10" height="10"/>
    <rect x="190" y="210" width="10" height="20"/><rect x="210" y="220" width="10" height="10"/>
    <rect x="240" y="210" width="10" height="10"/><rect x="270" y="230" width="10" height="10"/>
    <rect x="80" y="250" width="40" height="10"/><rect x="130" y="250" width="10" height="10"/>
    <rect x="160" y="260" width="10" height="10"/><rect x="180" y="250" width="10" height="20"/>
    <rect x="200" y="260" width="10" height="10"/><rect x="230" y="250" width="10" height="10"/>
    <rect x="250" y="260" width="10" height="10"/><rect x="270" y="250" width="40" height="10"/>
    <rect x="80" y="270" width="10" height="40"/><rect x="110" y="280" width="10" height="10"/>
    <rect x="270" y="270" width="10" height="40"/><rect x="300" y="280" width="10" height="10"/>
    <rect x="80" y="300" width="40" height="10"/><rect x="270" y="300" width="40" height="10"/>
  </g>
  <text x="200" y="370" text-anchor="middle" font-family="Arial,sans-serif" font-size="18" font-weight="800" fill="#333">SKRIPZY DIGITAL EDU</text>
  <text x="200" y="400" text-anchor="middle" font-family="Arial,sans-serif" font-size="14" fill="#888">Scan untuk bayar</text>
  <text x="200" y="440" text-anchor="middle" font-family="Arial,sans-serif" font-size="11" fill="#bbb">* Placeholder — ganti dengan QRIS asli</text>
</svg>
